<svg width="114" height="40" viewBox="0 0 114 40" fill="none" xmlns="http://www.w3.org/2000/svg">
<g clip-path="url(#clip0_427_3585)">
<path fill-rule="evenodd" clip-rule="evenodd" d="M0.064209 -0.127441V40.1268H113.039V-0.127441H0.064209ZM101.069 30.9296C87.0402 36.7496 71.7873 38.4826 56.7099 38.4826C41.6832 38.4826 26.2149 36.8629 12.2618 30.9296C8.10787 29.1708 1.55428 25.2114 1.55428 19.9993C1.55428 14.7744 8.12008 10.8273 12.2618 9.0691C26.2156 3.13579 41.671 1.51673 56.7099 1.51673C71.7867 1.51673 87.0402 3.24978 101.069 9.0691C105.552 10.929 111.549 14.4582 111.549 19.9993C111.549 25.5276 105.564 29.0697 101.069 30.9296Z" fill="black" fill-opacity="0.4"/>
<path d="M71.66 21.6068C72.0142 21.6068 72.3292 21.7459 72.6204 21.9359L72.6197 17.1792C72.3285 17.3808 72.0135 17.5077 71.6594 17.5077H66.419V16.5081H73.3397C73.6804 16.5081 73.9967 16.6479 74.2866 16.8372V12.0934H56.7728C57.0756 12.3465 57.3533 12.6634 57.3533 13.08V26.426C57.3533 26.8311 57.0756 27.1473 56.7728 27.4004H74.2872V22.151C73.9967 22.3275 73.6804 22.4672 73.3403 22.4672H66.4197V21.6068H71.66Z" fill="black" fill-opacity="0.4"/>
<path fill-rule="evenodd" clip-rule="evenodd" d="M85.4743 24.3394H89.3499L90.1836 26.5033C90.2215 26.6044 90.235 26.7055 90.235 26.8195C90.235 27.0217 90.1836 27.2117 90.1084 27.401H101.258C101.031 27.1982 100.879 26.9966 100.777 26.7177L95.5242 13.8516C95.3982 13.5482 95.2979 13.2191 95.2979 12.8778C95.2979 12.5996 95.411 12.3465 95.5242 12.0935L95.5242 12.0934H81.0921C81.2066 12.3336 81.3069 12.5867 81.3069 12.8649C81.3069 13.194 81.2066 13.5354 81.0921 13.8516L76.3314 26.7177C76.2305 26.9843 76.091 27.1988 75.8891 27.401H84.8173C84.7286 27.2368 84.6656 27.0719 84.6656 26.8819C84.665 26.7961 84.6778 26.7107 84.7035 26.6288L85.4743 24.3394ZM88.2011 21.2526H86.4713L87.305 18.8111L88.2011 21.2526Z" fill="black" fill-opacity="0.4"/>
<path d="M40.4329 26.4131V21.7833L43.1482 26.4137C43.2491 26.5786 43.35 26.7815 43.35 26.9837C43.35 27.1171 43.2617 27.2409 43.1804 27.3548C43.1695 27.3702 43.1587 27.3854 43.1482 27.4004H55.295C54.8405 27.1602 54.4747 26.8439 54.2093 26.4137L49.1586 18.4189L52.8208 13.0929C53.1015 12.6714 53.4838 12.3277 53.9322 12.0934H43.5017C43.5068 12.1043 43.5118 12.1152 43.5169 12.1261C43.5888 12.281 43.6657 12.4464 43.6657 12.6118C43.6657 12.7896 43.5905 12.9538 43.5017 13.0929L40.4335 17.6976V13.0929C40.4335 12.6627 40.6984 12.3594 41.0018 12.0934H30.4325C30.723 12.3716 31.0007 12.6634 31.0007 13.0929V26.4131C31.0007 26.8304 30.723 27.1344 30.4325 27.3997H41.0012C40.6984 27.1344 40.4329 26.8304 40.4329 26.4131Z" fill="black" fill-opacity="0.4"/>
<path d="M26.6694 12.0934H15.8481C16.1387 12.3594 16.4035 12.6498 16.4035 13.08V26.4137C16.4035 26.8311 16.1387 27.135 15.8481 27.4004H26.6694C26.3666 27.135 26.1011 26.8311 26.1011 26.4137V13.08C26.1011 12.6498 26.3666 12.3594 26.6694 12.0934Z" fill="black" fill-opacity="0.4"/>
</g>
<defs>
<clipPath id="clip0_427_3585">
<rect width="113.103" height="40" fill="white"/>
</clipPath>
</defs>
</svg>
